<svg xmlns="http://www.w3.org/2000/svg" viewBox="0 0 512 512">
  <defs>
    <radialGradient id="coin" cx="32%" cy="26%" r="72%">
      <stop offset="0" stop-color="#fff"/>
      <stop offset=".28" stop-color="#f2f4f5"/>
      <stop offset=".62" stop-color="#c9cfd3"/>
      <stop offset="1" stop-color="#6f777d"/>
    </radialGradient>
    <linearGradient id="relief" x1="0" x2="1" y1="0" y2="1">
      <stop offset="0" stop-color="#f8fafc"/>
      <stop offset="1" stop-color="#8f989f"/>
    </linearGradient>
    <filter id="soft" x="-20%" y="-20%" width="140%" height="140%">
      <feDropShadow dx="0" dy="6" stdDeviation="5" flood-color="#000" flood-opacity=".22"/>
    </filter>
  </defs>
  <circle cx="256" cy="256" r="238" fill="url(#coin)"/>
  <circle cx="256" cy="256" r="218" fill="none" stroke="#fff" stroke-width="9" opacity=".55"/>
  <circle cx="256" cy="256" r="198" fill="none" stroke="#5f6870" stroke-width="5" stroke-dasharray="5 8" opacity=".42"/>
  <text x="256" y="72" text-anchor="middle" font-family="Georgia,serif" font-size="25" font-weight="700" letter-spacing="2" fill="#58616a" opacity=".78">UNITED STATES OF AMERICA</text>
  <text x="256" y="104" text-anchor="middle" font-family="Georgia,serif" font-size="20" font-weight="700" letter-spacing="3" fill="#58616a" opacity=".72">E PLURIBUS UNUM</text>
  <text x="256" y="452" text-anchor="middle" font-family="Georgia,serif" font-size="29" font-weight="700" letter-spacing="4" fill="#58616a" opacity=".78">HALF DOLLAR</text>
  <g filter="url(#soft)">
    <path d="M256 140c16 0 29 10 34 25 34 8 62 31 78 64-36-11-65-10-88 5l-24 16-24-16c-23-15-52-16-88-5 16-33 44-56 78-64 5-15 18-25 34-25z" fill="url(#relief)"/>
    <path d="M145 256c37-18 72-16 105 8l6 5 6-5c33-24 68-26 105-8-10 32-35 55-71 70 7 14 20 25 42 32-34 12-64 8-82-11-18 19-48 23-82 11 22-7 35-18 42-32-36-15-61-38-71-70z" fill="#aeb7bd" opacity=".95"/>
    <path d="M256 160c-16 0-29 13-29 29s13 29 29 29 29-13 29-29-13-29-29-29z" fill="#eef2f4" opacity=".9"/>
    <path d="M205 335c29 16 72 16 102 0" fill="none" stroke="#6f777d" stroke-width="12" stroke-linecap="round" opacity=".5"/>
    <path d="M162 246c34-8 67-3 94 17 27-20 60-25 94-17" fill="none" stroke="#eef2f4" stroke-width="10" stroke-linecap="round" opacity=".55"/>
  </g>
  <circle cx="164" cy="146" r="38" fill="#fff" opacity=".22"/>
</svg>
