<svg xmlns="http://www.w3.org/2000/svg" viewBox="0 0 512 512">
  <defs>
    <radialGradient id="coin" cx="32%" cy="26%" r="72%">
      <stop offset="0" stop-color="#fff"/>
      <stop offset=".28" stop-color="#f2f4f5"/>
      <stop offset=".62" stop-color="#c9cfd3"/>
      <stop offset="1" stop-color="#6f777d"/>
    </radialGradient>
    <linearGradient id="relief" x1="0" x2="1" y1="0" y2="1">
      <stop offset="0" stop-color="#f8fafc"/>
      <stop offset="1" stop-color="#8f989f"/>
    </linearGradient>
    <filter id="soft" x="-20%" y="-20%" width="140%" height="140%">
      <feDropShadow dx="0" dy="6" stdDeviation="5" flood-color="#000" flood-opacity=".22"/>
    </filter>
  </defs>
  <circle cx="256" cy="256" r="238" fill="url(#coin)"/>
  <circle cx="256" cy="256" r="218" fill="none" stroke="#fff" stroke-width="9" opacity=".55"/>
  <circle cx="256" cy="256" r="198" fill="none" stroke="#5f6870" stroke-width="5" stroke-dasharray="5 8" opacity=".42"/>
  <text x="256" y="78" text-anchor="middle" font-family="Georgia,serif" font-size="34" font-weight="700" letter-spacing="5" fill="#58616a" opacity=".78">LIBERTY</text>
  <text x="256" y="448" text-anchor="middle" font-family="Georgia,serif" font-size="32" font-weight="700" letter-spacing="5" fill="#58616a" opacity=".78">1976</text>
  <text x="114" y="358" font-family="Georgia,serif" font-size="22" font-weight="700" fill="#58616a" opacity=".72">IN GOD</text>
  <text x="112" y="386" font-family="Georgia,serif" font-size="22" font-weight="700" fill="#58616a" opacity=".72">WE TRUST</text>
  <g filter="url(#soft)">
    <path d="M316 142c-26-18-70-20-103 1-35 22-53 62-53 109 0 22 5 43 15 61-13 13-21 31-21 51 0 40 31 72 70 72 31 0 56-19 67-46 41-2 72-23 72-53 0-18-11-33-29-43 6-18 9-38 8-59-1-41-10-72-26-93z" fill="url(#relief)"/>
    <path d="M276 155c-30 5-56 24-69 51-13 28-12 64 6 93 11 18 31 31 53 34-5 18-20 31-41 31-18 0-34-10-43-24-8 8-13 19-13 31 0 27 22 49 50 49 30 0 52-23 60-55 38-2 64-18 64-39 0-14-12-26-31-33 7-21 11-45 8-69-4-32-18-56-44-69z" fill="#aeb7bd" opacity=".92"/>
    <path d="M203 205c22-18 53-28 84-16" fill="none" stroke="#eef2f4" stroke-width="12" stroke-linecap="round" opacity=".65"/>
    <path d="M316 284c-26 20-59 23-91 12" fill="none" stroke="#6f777d" stroke-width="10" stroke-linecap="round" opacity=".45"/>
  </g>
  <circle cx="164" cy="146" r="38" fill="#fff" opacity=".22"/>
</svg>
